<svg width="28" height="25" viewBox="0 0 28 25" fill="none" xmlns="http://www.w3.org/2000/svg">
<path d="M23.3334 21.6663H4.66675V22.9997C4.66675 23.3533 4.52627 23.6924 4.27622 23.9425C4.02618 24.1925 3.68704 24.333 3.33341 24.333H2.00008C1.64646 24.333 1.30732 24.1925 1.05727 23.9425C0.807224 23.6924 0.666748 23.3533 0.666748 22.9997V9.66634L3.97341 1.94901C4.17918 1.46901 4.52136 1.05999 4.95749 0.772715C5.39362 0.485437 5.9045 0.332544 6.42675 0.333009H21.5734C22.0952 0.333066 22.6055 0.486204 23.0411 0.773449C23.4767 1.06069 23.8185 1.46943 24.0241 1.94901L27.3334 9.66634V22.9997C27.3334 23.3533 27.1929 23.6924 26.9429 23.9425C26.6928 24.1925 26.3537 24.333 26.0001 24.333H24.6667C24.3131 24.333 23.974 24.1925 23.7239 23.9425C23.4739 23.6924 23.3334 23.3533 23.3334 22.9997V21.6663ZM24.6667 12.333H3.33341V18.9997H24.6667V12.333ZM3.56808 9.66634H24.4321L21.5747 2.99968H6.42675L3.56941 9.66634H3.56808ZM6.66675 17.6663C6.13632 17.6663 5.62761 17.4556 5.25253 17.0806C4.87746 16.7055 4.66675 16.1968 4.66675 15.6663C4.66675 15.1359 4.87746 14.6272 5.25253 14.2521C5.62761 13.8771 6.13632 13.6663 6.66675 13.6663C7.19718 13.6663 7.70589 13.8771 8.08096 14.2521C8.45603 14.6272 8.66675 15.1359 8.66675 15.6663C8.66675 16.1968 8.45603 16.7055 8.08096 17.0806C7.70589 17.4556 7.19718 17.6663 6.66675 17.6663ZM21.3334 17.6663C20.803 17.6663 20.2943 17.4556 19.9192 17.0806C19.5441 16.7055 19.3334 16.1968 19.3334 15.6663C19.3334 15.1359 19.5441 14.6272 19.9192 14.2521C20.2943 13.8771 20.803 13.6663 21.3334 13.6663C21.8638 13.6663 22.3726 13.8771 22.7476 14.2521C23.1227 14.6272 23.3334 15.1359 23.3334 15.6663C23.3334 16.1968 23.1227 16.7055 22.7476 17.0806C22.3726 17.4556 21.8638 17.6663 21.3334 17.6663Z" fill="#3D56F0"/>
</svg>
